<svg width="99" height="92" viewBox="0 0 99 92" fill="none" xmlns="http://www.w3.org/2000/svg">
<rect x="0.874756" y="0.491699" width="97.9373" height="76.893" rx="32.376" fill="#47E974"/>
<path d="M32.4412 22.7498C33.4071 22.7498 34.3091 23.2585 34.9822 24.1335C35.6554 25.0089 36.0837 26.2352 36.0837 27.6062C36.0837 28.9774 35.6556 30.2044 34.9822 31.0798C34.3091 31.9548 33.4071 32.4626 32.4412 32.4626C31.4752 32.4626 30.5732 31.9548 29.9001 31.0798C29.2268 30.2044 28.7986 28.9774 28.7986 27.6062C28.7987 26.2353 29.227 25.0089 29.9001 24.1335C30.5732 23.2586 31.4752 22.7498 32.4412 22.7498Z" fill="#2A4D30" stroke="#2A4D30" stroke-width="0.809399"/>
<path d="M67.2454 22.7498C68.2113 22.7498 69.1133 23.2585 69.7864 24.1335C70.4596 25.0089 70.8879 26.2352 70.8879 27.6062C70.8879 28.9774 70.4598 30.2044 69.7864 31.0798C69.1133 31.9548 68.2113 32.4626 67.2454 32.4626C66.2794 32.4626 65.3774 31.9548 64.7043 31.0798C64.031 30.2044 63.6028 28.9774 63.6028 27.6062C63.6029 26.2353 64.0312 25.0089 64.7043 24.1335C65.3774 23.2586 66.2794 22.7498 67.2454 22.7498Z" fill="#2A4D30" stroke="#2A4D30" stroke-width="0.809399"/>
<path d="M35.679 49.1409C43.3683 55.5309 55.1045 57.1497 63.6032 49.1409" stroke="#2A4D30" stroke-width="3.2376" stroke-linecap="round"/>
</svg>
