<svg width="99" height="92" viewBox="0 0 99 92" fill="none" xmlns="http://www.w3.org/2000/svg">
<rect x="0.9375" y="0.491699" width="97.9373" height="76.893" rx="32.376" fill="#F7BD40"/>
<path d="M32.5039 28.4155C33.4699 28.4155 34.3718 28.9243 35.0449 29.7993C35.7182 30.6747 36.1464 31.901 36.1465 33.272C36.1465 34.6432 35.7183 35.8702 35.0449 36.7456C34.3718 37.6206 33.4699 38.1284 32.5039 38.1284C31.538 38.1284 30.6359 37.6206 29.9629 36.7456C29.2896 35.8702 28.8613 34.6431 28.8613 33.272C28.8614 31.901 29.2897 30.6747 29.9629 29.7993C30.6359 28.9244 31.538 28.4156 32.5039 28.4155Z" fill="#865F0A" stroke="#865F0A" stroke-width="0.809399"/>
<path d="M67.3081 28.4155C68.2741 28.4155 69.176 28.9243 69.8491 29.7993C70.5224 30.6747 70.9506 31.901 70.9507 33.272C70.9507 34.6432 70.5225 35.8702 69.8491 36.7456C69.176 37.6206 68.2741 38.1284 67.3081 38.1284C66.3422 38.1284 65.4401 37.6206 64.7671 36.7456C64.0938 35.8702 63.6655 34.6431 63.6655 33.272C63.6656 31.901 64.0939 30.6747 64.7671 29.7993C65.4401 28.9244 66.3422 28.4156 67.3081 28.4155Z" fill="#865F0A" stroke="#865F0A" stroke-width="0.809399"/>
<path d="M35.7417 54.806C43.0263 54.8065 53.9532 54.8061 63.666 54.806" stroke="#865F0A" stroke-width="3.2376" stroke-linecap="round"/>
</svg>
