<svg width="55" height="48" viewBox="0 0 55 48" fill="none" xmlns="http://www.w3.org/2000/svg">
<rect x="8.14111" y="8" width="25" height="25" rx="12.5" fill="#F7BD40"/>
<rect x="19.1411" width="3" height="6" rx="1.5" fill="#F7BD40"/>
<rect x="1.19031" y="25.9961" width="2.73944" height="6.39202" rx="1.36972" transform="rotate(-105 1.19031 25.9961)" fill="#F7BD40"/>
<rect x="30.4397" y="38.8418" width="2.73944" height="6.39202" rx="1.36972" transform="rotate(154.775 30.4397 38.8418)" fill="#F7BD40"/>
<rect x="30.5905" y="1.82629" width="2.73944" height="6.39202" rx="1.36972" transform="rotate(30 30.5905 1.82629)" fill="#F7BD40"/>
<rect y="14.4983" width="2.73944" height="6.39202" rx="1.36972" transform="rotate(-75 0 14.4983)" fill="#F7BD40"/>
<rect x="19.3356" y="42.0537" width="2.73944" height="6.39202" rx="1.36972" transform="rotate(-175.225 19.3356 42.0537)" fill="#F7BD40"/>
<rect x="37.6127" y="9.70898" width="2.73944" height="6.39202" rx="1.36972" transform="rotate(57.4123 37.6127 9.70898)" fill="#F7BD40"/>
<rect x="5.79651" y="5.67505" width="2.73944" height="6.39202" rx="1.36972" transform="rotate(-47.5877 5.79651 5.67505)" fill="#F7BD40"/>
<rect x="9.62366" y="37.9158" width="2.73944" height="6.39202" rx="1.36972" transform="rotate(-147.813 9.62366 37.9158)" fill="#F7BD40"/>
<path d="M34.8325 17.5376C28.3755 21.2655 26.1632 29.522 29.8911 35.9789C33.619 42.4359 41.8755 44.6482 48.3325 40.9203C50.556 39.6365 52.2761 37.8158 53.4237 35.7164C53.4339 35.6978 53.413 35.6776 53.3946 35.6882C47.8943 38.8639 40.861 36.9793 37.6853 31.4789C34.5097 25.9786 36.3943 18.9453 41.8946 15.7696C41.9163 15.7571 41.938 15.7447 41.9598 15.7323C39.5438 15.6625 37.0792 16.2404 34.8325 17.5376Z" fill="#D7F0F1"/>
</svg>
