<svg width="235" height="315" viewBox="0 0 235 315" fill="none" xmlns="http://www.w3.org/2000/svg">
<rect x="78" y="274" width="92" height="31" rx="15.5" fill="#40B578"/>
<rect x="92" y="284" width="64" height="31" rx="15.5" fill="#40B578"/>
<path fill-rule="evenodd" clip-rule="evenodd" d="M116.981 23.0339C119.413 26.6845 123.229 36.2327 120.5 47.1566L114.5 45.6559C116.718 36.7799 113.526 29.0031 111.835 26.4661L116.981 23.0339Z" fill="#E38E2A"/>
<path d="M104.445 148.487C104.828 138.133 113.329 129.938 123.684 129.938C134.04 129.938 142.54 138.133 142.923 148.487L145.518 218.57L165.189 198.889C169.095 194.981 175.428 194.981 179.334 198.889C183.24 202.797 183.24 209.133 179.334 213.041L146.528 245.864L147.506 272.267C148.005 285.776 137.195 297 123.684 297C110.173 297 99.3628 285.776 99.8629 272.267L101.755 221.147L68.9171 188.291C65.0112 184.383 65.0112 178.047 68.9171 174.139C72.8232 170.23 79.1561 170.23 83.0622 174.139L102.766 193.853L104.445 148.487Z" fill="#E38E2A"/>
<path d="M160.789 173.25C160.789 159.581 171.865 148.5 185.526 148.5H210.263C223.925 148.5 235 159.581 235 173.25V198C235 211.669 223.925 222.75 210.263 222.75H185.526C171.865 222.75 160.789 211.669 160.789 198V173.25Z" fill="#40D057"/>
<path d="M0 136.125C0 119.039 13.8438 105.188 30.9211 105.188H61.8421C78.9193 105.188 92.7632 119.039 92.7632 136.125V167.062C92.7632 184.149 78.9193 198 61.8421 198H30.921C13.8438 198 0 184.149 0 167.062V136.125Z" fill="#43D55B"/>
<path d="M30.9211 86.625C30.9211 62.7042 50.3024 43.3125 74.2105 43.3125H173.158C197.066 43.3125 216.447 62.7042 216.447 86.625V123.75C216.447 147.671 197.066 167.062 173.158 167.062H74.2105C50.3024 167.062 30.9211 147.671 30.9211 123.75V86.625Z" fill="#47E974"/>
<path d="M115.704 30.9375C108.56 15.0268 123.145 3.68304 131.331 0C133.563 7.36607 133.563 23.8661 115.704 30.9375Z" fill="#47E974"/>
<path d="M118.019 30.5265C100.216 33.1611 92.742 16.7643 91.2303 8.23659C99.1873 8.01506 115.685 12.1629 118.019 30.5265Z" fill="#43D55B"/>
<path d="M145.605 120.598C130.3 135.608 110.561 132.156 98.5463 126.702C97.3005 126.137 95.5537 127.982 96.2399 129.167C101.814 138.785 108.945 151.43 128.182 147.892C139.536 145.804 145.595 131.328 147.717 121.628C147.98 120.428 146.482 119.738 145.605 120.598Z" fill="#149F6E"/>
<path d="M92.7632 95.9062C92.7632 101.032 89.9944 105.188 86.5789 105.188C83.1635 105.188 80.3947 101.032 80.3947 95.9062C80.3947 90.7804 83.1635 86.625 86.5789 86.625C89.9944 86.625 92.7632 90.7804 92.7632 95.9062Z" fill="#149768"/>
<path d="M160.789 95.9062C160.789 101.032 158.021 105.188 154.605 105.188C151.19 105.188 148.421 101.032 148.421 95.9062C148.421 90.7804 151.19 86.625 154.605 86.625C158.021 86.625 160.789 90.7804 160.789 95.9062Z" fill="#149768"/>
</svg>
