<svg width="389" height="590" viewBox="0 0 389 590" fill="none" xmlns="http://www.w3.org/2000/svg">
<path d="M-84.6733 201.57C257.6 182.192 365.539 346.675 397 446.623L113.013 512H-505C-505 411.621 -470.461 223.412 -84.6733 201.57Z" fill="#219F5E"/>
<path d="M421 240.21C653.229 219.361 824.654 350.174 846 457.71L478.315 539.399H59C59 431.399 159.247 263.71 421 240.21Z" fill="#2BA968"/>
<path fill-rule="evenodd" clip-rule="evenodd" d="M5.53165 339.323V308H-8.90814V357.29L-29.9489 347.498L-36 360.718L-8.90814 373.326V439.721C-8.90814 440.98 -7.89717 442 -6.65007 442H5.53165V357.693L34 335.611L25.1959 324.07L5.53165 339.323Z" fill="#D0924C"/>
<path d="M-33 296.231C-33 282.848 -22.1515 272 -8.76923 272H5.76924C19.1515 272 30 282.848 30 296.231V310.769C30 324.152 19.1515 335 5.76924 335H-8.76923C-22.1515 335 -33 324.152 -33 310.769V296.231Z" fill="#5ADB99"/>
<path d="M15 322.8C15 313.522 22.6609 306 32.1111 306H41.8889C51.3391 306 59 313.522 59 322.8V337.2C59 346.478 51.3391 354 41.8889 354H32.1111C22.6609 354 15 346.478 15 337.2V322.8Z" fill="#4AC987"/>
<path d="M181.5 372C5.1 372 -131 491.5 -177 564.5V603H602.5C602.5 564.5 436.5 372 181.5 372Z" fill="url(#paint0_linear_2069_2389)"/>
<path fill-rule="evenodd" clip-rule="evenodd" d="M382.125 212.396V181H367.479V230.406L346.138 220.591L340 233.842L367.479 246.48V268.716C367.479 269.977 368.504 271 369.769 271H382.125V230.809L411 208.676L402.07 197.108L382.125 212.396Z" fill="#BA803E"/>
<path d="M344 168.231C344 154.848 354.676 144 367.846 144H382.154C395.324 144 406 154.848 406 168.231V182.769C406 196.152 395.324 207 382.154 207H367.846C354.676 207 344 196.152 344 182.769V168.231Z" fill="#1CA071"/>
<path d="M314 209.8C314 200.522 321.661 193 331.111 193H340.889C350.339 193 358 200.522 358 209.8V224.2C358 233.478 350.339 241 340.889 241H331.111C321.661 241 314 233.478 314 224.2V209.8Z" fill="#1CA071"/>
<path d="M351.5 293C352.14 293 352.769 292.955 353.385 292.869C353.972 292.955 354.571 293 355.182 293H357.636C359.108 293 360.519 292.74 361.826 292.264C363.206 292.741 364.686 293 366.227 293C367.309 293 368.362 292.872 369.37 292.631C370.328 292.872 371.331 293 372.364 293H374.818C375.232 293 375.642 292.979 376.045 292.939C376.449 292.979 376.859 293 377.273 293H379.727C386.505 293 392 287.49 392 280.692C392 273.895 386.505 268.385 379.727 268.385H378.255C376.021 264.001 371.473 261 366.227 261C361.778 261 357.832 263.158 355.372 266.488C354.146 266.121 352.846 265.923 351.5 265.923C344.044 265.923 338 271.984 338 279.462C338 286.939 344.044 293 351.5 293Z" fill="#17825C"/>
<path fill-rule="evenodd" clip-rule="evenodd" d="M20.0168 164.35V134H34.2275V173.824L44.245 162.308L55 171.53L34.2275 195.408V221H20.0168V182.149L-8 160.753L0.664436 149.571L20.0168 164.35Z" fill="#BA803E"/>
<path d="M58.125 157.047C58.125 143.946 47.4918 133.326 34.375 133.326H20.125C7.00824 133.326 -3.625 143.946 -3.625 157.047V171.279C-3.625 184.38 7.00824 195 20.125 195H34.375C47.4918 195 58.125 184.38 58.125 171.279V157.047Z" fill="#4AC987"/>
<path d="M58.125 116.721C58.125 103.62 47.4918 93 34.375 93H20.125C7.00824 93 -3.625 103.62 -3.625 116.721V130.953C-3.625 144.054 7.00824 154.674 20.125 154.674H34.375C47.4918 154.674 58.125 144.054 58.125 130.953V116.721Z" fill="#4AC987"/>
<path d="M89 140.442C89 127.341 78.3668 116.721 65.25 116.721H51C37.8832 116.721 27.25 127.341 27.25 140.442V154.674C27.25 167.775 37.8832 178.395 51 178.395H65.25C78.3668 178.395 89 167.775 89 154.674V140.442Z" fill="#4AC987"/>
<path d="M17.75 140.442C17.75 131.271 10.3067 123.837 1.125 123.837H-8.375C-17.5567 123.837 -25 131.271 -25 140.442V154.674C-25 163.845 -17.5567 171.279 -8.375 171.279H1.125C10.3067 171.279 17.75 163.845 17.75 154.674V140.442Z" fill="#4AC987"/>
<path d="M72 175.902C72 181.479 67.5228 186 62 186C56.4772 186 52 181.479 52 175.902C52 170.326 56.4772 168 62 168C67.5228 168 72 170.326 72 175.902Z" fill="#CB7256"/>
<path d="M3 170.902C3 176.479 -1.25329 181 -6.5 181C-11.7467 181 -16 176.479 -16 170.902C-16 165.326 -11.7467 163 -6.5 163C-1.25329 163 3 165.326 3 170.902Z" fill="#CB7256"/>
<path d="M44 137.902C44 143.479 39.7467 148 34.5 148C29.2533 148 25 143.479 25 137.902C25 132.326 29.2533 130 34.5 130C39.7467 130 44 132.326 44 137.902Z" fill="#CB7256"/>
<path d="M69.0538 160.482C65.3655 160.591 61.3625 163.256 62.1687 165.898C63.0674 168.844 67.0436 168.078 67.7687 165.475C68.3896 163.247 68.5202 162.038 69.2361 160.809C69.3207 160.664 69.2218 160.477 69.0538 160.482Z" fill="#78DF95"/>
<path d="M64.671 164.672C64.8002 164.602 64.9617 164.65 65.0314 164.78C65.101 164.909 65.0529 165.07 64.9238 165.14C63.0605 166.145 62.7809 167.544 62.4111 168.549C62.3604 168.686 62.2073 168.757 62.0695 168.706C61.9317 168.656 61.861 168.503 61.9117 168.365C62.2655 167.404 62.6002 165.789 64.671 164.672Z" fill="#CB9351"/>
<path d="M0.253739 155.681C-3.43459 155.791 -7.43759 158.455 -6.63139 161.098C-5.73263 164.044 -1.75645 163.278 -1.03133 160.675C-0.410478 158.446 -0.279814 157.238 0.436061 156.009C0.520652 155.864 0.421704 155.676 0.253739 155.681Z" fill="#78DF95"/>
<path d="M27.6979 122.082C31.3863 122.191 35.3893 124.856 34.583 127.498C33.6843 130.444 29.7081 129.678 28.983 127.075C28.3621 124.847 28.2315 123.638 27.5156 122.409C27.431 122.264 27.53 122.077 27.6979 122.082Z" fill="#78DF95"/>
<path d="M32.081 126.272C31.9517 126.202 31.7903 126.251 31.7205 126.38C31.651 126.509 31.699 126.67 31.8282 126.74C33.6914 127.745 33.971 129.144 34.3409 130.149C34.3916 130.287 34.5446 130.357 34.6825 130.307C34.8202 130.256 34.8909 130.103 34.8402 129.965C34.4865 129.004 34.1517 127.389 32.081 126.272Z" fill="#CB9351"/>
<path d="M3.5 242C4.13975 242 4.76911 241.955 5.38515 241.869C5.97159 241.955 6.5715 242 7.18182 242H9.63636C11.1077 242 12.5186 241.74 13.826 241.264C15.2055 241.741 16.6862 242 18.2273 242C19.3093 242 20.3616 241.872 21.37 241.631C22.3281 241.872 23.331 242 24.3636 242H26.8182C27.2324 242 27.6418 241.979 28.0455 241.939C28.4491 241.979 28.8585 242 29.2727 242H31.7273C38.5053 242 44 236.49 44 229.692C44 222.895 38.5053 217.385 31.7273 217.385H30.2553C28.0207 213.001 23.4735 210 18.2273 210C13.778 210 9.83153 212.158 7.37212 215.488C6.14557 215.121 4.84578 214.923 3.5 214.923C-3.95584 214.923 -10 220.984 -10 228.462C-10 235.939 -3.95584 242 3.5 242Z" fill="#17825C"/>
<rect x="36" y="12" width="114" height="33" rx="16.5" fill="#DDF4F9"/>
<rect x="343" y="71" width="58" height="33" rx="16.5" fill="#DDF4F9"/>
<rect x="314" y="53" width="58" height="37" rx="18.5" fill="#DDF4F9"/>
<rect x="339" y="39" width="58" height="44" rx="22" fill="#DDF4F9"/>
<rect x="68" y="29" width="101" height="33" rx="16.5" fill="#DDF4F9"/>
<rect x="119" y="6" width="37" height="33" rx="16.5" fill="#DDF4F9"/>
<rect x="77" width="55" height="33" rx="16.5" fill="#DDF4F9"/>
<defs>
<linearGradient id="paint0_linear_2069_2389" x1="200" y1="372" x2="203.5" y2="562" gradientUnits="userSpaceOnUse">
<stop stop-color="#4AC987"/>
<stop offset="1" stop-color="#37B775"/>
</linearGradient>
</defs>
</svg>
